<?xml version="1.0" encoding="UTF-8" standalone="no"?>
<!-- Created with Inkscape (http://www.inkscape.org/) -->

<svg
   xmlns:dc="http://purl.org/dc/elements/1.1/"
   xmlns:cc="http://creativecommons.org/ns#"
   xmlns:rdf="http://www.w3.org/1999/02/22-rdf-syntax-ns#"
   xmlns:svg="http://www.w3.org/2000/svg"
   xmlns="http://www.w3.org/2000/svg"
   xmlns:sodipodi="http://sodipodi.sourceforge.net/DTD/sodipodi-0.dtd"
   xmlns:inkscape="http://www.inkscape.org/namespaces/inkscape"
   width="32"
   height="32"
   viewBox="0 0 8.4666659 8.4666659"
   version="1.1"
   id="svg3732"
   inkscape:version="0.92.4 (5da689c313, 2019-01-14)"
   sodipodi:docname="mmSolverWindow.svg"
   inkscape:export-filename="C:\Users\catte\dev\mayaMatchMoveSolver_windows\icons\mmSolverWindow_32x32.png"
   inkscape:export-xdpi="96.000008"
   inkscape:export-ydpi="96.000008">
  <defs
     id="defs3726">
    <marker
       id="Arrow1Mstart"
       style="overflow:visible"
       orient="auto"
       refY="0"
       refX="0">
      <path
         id="path3206"
         style="fill-rule:evenodd;stroke:#000000;stroke-width:1pt;marker-start:none"
         transform="matrix(0.4,0,0,0.4,4,0)"
         d="M 0,0 L 5,-5 L -12.5,0 L 5,5 L 0,0 z " />
    </marker>
    <marker
       id="Arrow1Mend"
       style="overflow:visible"
       orient="auto"
       refY="0"
       refX="0">
      <path
         id="path3209"
         style="fill-rule:evenodd;stroke:#000000;stroke-width:1pt;marker-start:none"
         transform="matrix(-0.4,0,0,-0.4,-4,0)"
         d="M 0,0 L 5,-5 L -12.5,0 L 5,5 L 0,0 z " />
    </marker>
    <marker
       id="Arrow1Lstart"
       style="overflow:visible"
       orient="auto"
       refY="0"
       refX="0">
      <path
         id="path3200"
         style="fill-rule:evenodd;stroke:#000000;stroke-width:1pt;marker-start:none"
         transform="matrix(0.8,0,0,0.8,10,0)"
         d="M 0,0 L 5,-5 L -12.5,0 L 5,5 L 0,0 z " />
    </marker>
  </defs>
  <sodipodi:namedview
     id="base"
     pagecolor="#ffffff"
     bordercolor="#666666"
     borderopacity="1.0"
     inkscape:pageopacity="0.0"
     inkscape:pageshadow="2"
     inkscape:zoom="9.777844"
     inkscape:cx="-12.97323"
     inkscape:cy="12.105287"
     inkscape:document-units="mm"
     inkscape:current-layer="layer5"
     showgrid="false"
     units="px"
     inkscape:pagecheckerboard="true"
     inkscape:window-width="1536"
     inkscape:window-height="801"
     inkscape:window-x="-8"
     inkscape:window-y="-8"
     inkscape:window-maximized="1" />
  <metadata
     id="metadata3729">
    <rdf:RDF>
      <cc:Work
         rdf:about="">
        <dc:format>image/svg+xml</dc:format>
        <dc:type
           rdf:resource="http://purl.org/dc/dcmitype/StillImage" />
        <dc:title />
      </cc:Work>
    </rdf:RDF>
  </metadata>
  <g
     inkscape:groupmode="layer"
     id="layer2"
     inkscape:label="Layer 2"
     style="display:inline">
    <g
       id="g2524"
       transform="matrix(0.15061238,0,0,0.16563799,-0.29516548,-0.3232888)">
      <path
         id="path2495"
         d="m 6.4736,4.0543 h 47.45 a 2.3674,2.3674 0 0 1 2.3674,2.3674 v 42.261 a 2.3674,2.3674 0 0 1 -2.3674,2.3674 H 6.4736 A 2.3674,2.3674 0 0 1 4.1062,48.6827 V 6.4217 A 2.3674,2.3674 0 0 1 6.4736,4.0543"
         inkscape:connector-curvature="0"
         style="fill:#e4e4e4;fill-opacity:1;fill-rule:evenodd" />
      <path
         id="path2497"
         d="m 6.9364,3.9419 c -1.2859,0 -2.3212,1.0352 -2.3212,2.3212 v 4.0794 c 0,1.2859 1.0352,2.3212 2.3212,2.3212 h 46.524 c 1.2859,0 2.3212,-1.0352 2.3212,-2.3212 V 6.2631 c 0,-1.2859 -1.0352,-2.3212 -2.3212,-2.3212 z"
         inkscape:connector-curvature="0"
         style="fill:#acacac;fill-opacity:1;fill-rule:evenodd" />
      <path
         id="path2499"
         d="m 52.799,7.0115 -2.706,2.706 m -0.06293,-2.769 2.769,2.769"
         inkscape:connector-curvature="0"
         style="fill:none;stroke:#333333;stroke-width:1.875;stroke-linecap:round;stroke-linejoin:round" />
      <path
         id="path2501"
         d="m 4.6152,6.263 v 4.0794 c 0,1.2859 1.0352,2.3212 2.3212,2.3212 h 47.097 c 1.2859,0 2.3212,-1.0352 2.3212,-2.3212 V 6.263"
         inkscape:connector-curvature="0"
         style="fill:none;stroke:#333333;stroke-width:3.125;stroke-linecap:round;stroke-linejoin:round" />
      <path
         id="path2503"
         d="m 6.4736,4.0543 h 47.45 a 2.3674,2.3674 0 0 1 2.3674,2.3674 v 42.261 a 2.3674,2.3674 0 0 1 -2.3674,2.3674 H 6.4736 A 2.3674,2.3674 0 0 1 4.1062,48.6827 V 6.4217 A 2.3674,2.3674 0 0 1 6.4736,4.0543"
         inkscape:connector-curvature="0"
         style="fill:none;stroke:#333333;stroke-width:3.125;stroke-linecap:round;stroke-linejoin:round" />
    </g>
  </g>
  <g
     inkscape:groupmode="layer"
     id="layer5"
     inkscape:label="Layer 5"
     style="display:inline">
    <text
       xml:space="preserve"
       style="font-style:normal;font-weight:normal;font-size:10.58333302px;line-height:1.25;font-family:sans-serif;letter-spacing:0px;word-spacing:0px;fill:#000000;fill-opacity:1;stroke:none;stroke-width:0.26458332"
       x="4.1784654"
       y="6.863214"
       id="text2592"><tspan
         sodipodi:role="line"
         id="tspan2590"
         x="4.9722152"
         y="6.863214"
         style="font-style:normal;font-variant:normal;font-weight:bold;font-stretch:normal;font-size:6.3499999px;font-family:serif;-inkscape-font-specification:'serif Bold';text-align:center;text-anchor:middle;stroke-width:0.26458332">λ= </tspan></text>
  </g>
</svg>
