<?xml version="1.0" encoding="UTF-8" standalone="no"?>
<svg
   width="64px"
   height="64px"
   id="svg2816"
   version="1.1"
   inkscape:version="1.2.1 (9c6d41e410, 2022-07-14)"
   sodipodi:docname="createCamera.svg"
   enable-background="new"
   inkscape:export-filename="C:\Users\catte\dev\mayaMatchMoveSolver\icons\createCamera_32x32.png"
   inkscape:export-xdpi="48"
   inkscape:export-ydpi="48"
   xmlns:inkscape="http://www.inkscape.org/namespaces/inkscape"
   xmlns:sodipodi="http://sodipodi.sourceforge.net/DTD/sodipodi-0.dtd"
   xmlns="http://www.w3.org/2000/svg"
   xmlns:svg="http://www.w3.org/2000/svg"
   xmlns:rdf="http://www.w3.org/1999/02/22-rdf-syntax-ns#"
   xmlns:cc="http://creativecommons.org/ns#"
   xmlns:dc="http://purl.org/dc/elements/1.1/">
  <defs
     id="defs2818">
    <marker
       inkscape:stockid="Arrow1Lstart"
       orient="auto"
       refY="0.0"
       refX="0.0"
       id="Arrow1Lstart"
       style="overflow:visible">
      <path
         id="path5670"
         d="M 0.0,0.0 L 5.0,-5.0 L -12.5,0.0 L 5.0,5.0 L 0.0,0.0 z "
         style="fill-rule:evenodd;stroke:#000000;stroke-width:1.0pt;marker-start:none"
         transform="scale(0.8) translate(12.5,0)" />
    </marker>
    <inkscape:perspective
       sodipodi:type="inkscape:persp3d"
       inkscape:vp_x="-58.990193 : 36.291009 : 0"
       inkscape:vp_y="0 : 999.99997 : 0"
       inkscape:vp_z="164.16468 : 72.24924 : 0"
       inkscape:persp3d-origin="32 : 21.333333 : 1"
       id="perspective2824" />
    <inkscape:perspective
       id="perspective4786"
       inkscape:persp3d-origin="0.5 : 0.33333333 : 1"
       inkscape:vp_z="1 : 0.5 : 1"
       inkscape:vp_y="0 : 1000 : 0"
       inkscape:vp_x="0 : 0.5 : 1"
       sodipodi:type="inkscape:persp3d" />
    <inkscape:perspective
       id="perspective4808"
       inkscape:persp3d-origin="0.5 : 0.33333333 : 1"
       inkscape:vp_z="1 : 0.5 : 1"
       inkscape:vp_y="0 : 1000 : 0"
       inkscape:vp_x="0 : 0.5 : 1"
       sodipodi:type="inkscape:persp3d" />
    <inkscape:perspective
       id="perspective5608"
       inkscape:persp3d-origin="0.5 : 0.33333333 : 1"
       inkscape:vp_z="1 : 0.5 : 1"
       inkscape:vp_y="0 : 1000 : 0"
       inkscape:vp_x="0 : 0.5 : 1"
       sodipodi:type="inkscape:persp3d" />
    <inkscape:perspective
       id="perspective4434"
       inkscape:persp3d-origin="0.5 : 0.33333333 : 1"
       inkscape:vp_z="1 : 0.5 : 1"
       inkscape:vp_y="0 : 1000 : 0"
       inkscape:vp_x="0 : 0.5 : 1"
       sodipodi:type="inkscape:persp3d" />
    <inkscape:perspective
       id="perspective3043"
       inkscape:persp3d-origin="0.5 : 0.33333333 : 1"
       inkscape:vp_z="1 : 0.5 : 1"
       inkscape:vp_y="0 : 1000 : 0"
       inkscape:vp_x="0 : 0.5 : 1"
       sodipodi:type="inkscape:persp3d" />
  </defs>
  <sodipodi:namedview
     id="base"
     pagecolor="#ffffff"
     bordercolor="#666666"
     borderopacity="1.0"
     inkscape:pageopacity="0"
     inkscape:pageshadow="2"
     inkscape:zoom="3.8890873"
     inkscape:cx="-41.526453"
     inkscape:cy="20.827509"
     inkscape:current-layer="layer1"
     showgrid="false"
     inkscape:document-units="px"
     inkscape:grid-bbox="true"
     inkscape:window-width="1920"
     inkscape:window-height="1137"
     inkscape:window-x="-8"
     inkscape:window-y="-8"
     inkscape:window-maximized="1"
     showguides="true"
     inkscape:guide-bbox="true"
     inkscape:document-rotation="0"
     inkscape:pagecheckerboard="true"
     inkscape:showpageshadow="0"
     inkscape:deskcolor="#d1d1d1">
    <inkscape:grid
       type="xygrid"
       id="grid4770"
       empspacing="5"
       visible="true"
       enabled="true"
       snapvisiblegridlinesonly="true" />
    <sodipodi:guide
       orientation="0,1"
       position="32,32"
       id="guide5594"
       inkscape:locked="false" />
    <sodipodi:guide
       orientation="1,0"
       position="32,40"
       id="guide5598"
       inkscape:locked="false" />
    <sodipodi:guide
       position="0,0"
       orientation="0,64"
       id="guide2858"
       inkscape:locked="false" />
    <sodipodi:guide
       position="64,0"
       orientation="-64,0"
       id="guide2860"
       inkscape:locked="false" />
    <sodipodi:guide
       position="64,64"
       orientation="0,-64"
       id="guide2862"
       inkscape:locked="false" />
    <sodipodi:guide
       position="0,64"
       orientation="64,0"
       id="guide2864"
       inkscape:locked="false" />
  </sodipodi:namedview>
  <metadata
     id="metadata2821">
    <rdf:RDF>
      <cc:Work
         rdf:about="">
        <dc:format>image/svg+xml</dc:format>
        <dc:type
           rdf:resource="http://purl.org/dc/dcmitype/StillImage" />
        <dc:title />
      </cc:Work>
    </rdf:RDF>
  </metadata>
  <g
     id="layer1"
     inkscape:label="icon"
     inkscape:groupmode="layer"
     style="display:inline">
    <g
       id="g3874">
      <g
         id="g4482">
        <g
           id="g1891"
           transform="matrix(0.27333333,0,0,0.27333333,-0.37616288,-6.3854242)">
          <g
             id="g1873">
            <path
               id="path1869"
               d="m 219.2,182.7 c -0.9,0 -1.9,-0.3 -2.6,-1 l -51.4,-44 c -0.5,-0.4 -0.9,-1 -1.1,-1.6 V 164 c 0,6.3 -5.1,11.3 -11.3,11.3 H 28.1 c -6.3,0 -11.3,-5.1 -11.3,-11.3 V 76 c 0,-6.2 5.1,-11.3 11.3,-11.3 h 124.7 c 6.2,0 11.3,5.1 11.3,11.3 v 27.9 c 0.2,-0.6 0.6,-1.2 1.1,-1.6 l 51.4,-44 c 0.7,-0.6 1.7,-1 2.6,-1 0.6,0 1.1,0.1 1.7,0.4 1.4,0.7 2.3,2.1 2.3,3.6 v 117.3 c 0,1.6 -0.9,3 -2.3,3.6 -0.5,0.4 -1.1,0.5 -1.7,0.5 z"
               inkscape:connector-curvature="0"
               style="clip-rule:evenodd;fill:#bdbdbd;fill-rule:evenodd" />
            <path
               id="path1871"
               d="m 219.2,61.3 v 117.3 l -51.4,-44 v -29.3 l 51.4,-44 m -66.4,7.4 c 4.1,0 7.3,3.3 7.3,7.3 v 88 c 0,4.1 -3.3,7.3 -7.3,7.3 H 28.1 C 24,171.3 20.8,168 20.8,164 V 76 c 0,-4.1 3.3,-7.3 7.3,-7.3 h 124.7 m 66.4,-15.4 c -1.9,0 -3.7,0.7 -5.2,1.9 L 168.1,94.5 V 76 c 0,-8.5 -6.9,-15.3 -15.3,-15.3 H 28.1 c -8.5,0 -15.3,6.9 -15.3,15.3 v 88 c 0,8.5 6.9,15.3 15.3,15.3 h 124.7 c 8.5,0 15.3,-6.9 15.3,-15.3 v -18.6 l 45.9,39.3 c 1.5,1.3 3.3,1.9 5.2,1.9 1.1,0 2.3,-0.2 3.3,-0.7 2.8,-1.3 4.7,-4.1 4.7,-7.3 V 61.3 c 0,-3.1 -1.8,-6 -4.7,-7.3 -1,-0.4 -2.1,-0.7 -3.3,-0.7 z"
               inkscape:connector-curvature="0"
               style="fill:#1d1d1d" />
          </g>
          <rect
             id="rect1875"
             height="240"
             width="240"
             x="0"
             y="0"
             style="clip-rule:evenodd;fill:none;fill-rule:evenodd" />
          <rect
             id="rect1877"
             height="240"
             width="240"
             x="0"
             y="0"
             style="clip-rule:evenodd;fill:none;fill-rule:evenodd" />
        </g>
      </g>
    </g>
  </g>
  <g
     inkscape:groupmode="layer"
     id="layer2"
     inkscape:label="text">
    <text
       xml:space="preserve"
       style="font-style:normal;font-weight:normal;font-size:41.796px;line-height:1.25;font-family:sans-serif;letter-spacing:0px;word-spacing:0px;display:inline;fill:#000000;fill-opacity:1;stroke:none;stroke-width:1.0449"
       x="0.11188768"
       y="61.789471"
       id="text1137-8"><tspan
         sodipodi:role="line"
         id="tspan1135-3"
         x="0.11188768"
         y="61.789471"
         style="font-style:normal;font-variant:normal;font-weight:bold;font-stretch:normal;font-size:17.415px;font-family:sans-serif;-inkscape-font-specification:'sans-serif Bold';fill:#000000;fill-opacity:1;stroke-width:1.0449">Create</tspan></text>
    <text
       xml:space="preserve"
       style="font-style:normal;font-weight:normal;font-size:41.796px;line-height:1.25;font-family:sans-serif;letter-spacing:0px;word-spacing:0px;display:inline;fill:#dadada;fill-opacity:1;stroke:none;stroke-width:1.0449"
       x="-0.32746196"
       y="60.9156"
       id="text1137"><tspan
         sodipodi:role="line"
         id="tspan1135"
         x="-0.32746196"
         y="60.9156"
         style="font-style:normal;font-variant:normal;font-weight:bold;font-stretch:normal;font-size:17.415px;font-family:sans-serif;-inkscape-font-specification:'sans-serif Bold';fill:#dadada;fill-opacity:1;stroke-width:1.0449">Create</tspan></text>
  </g>
</svg>
