<?xml version="1.0" encoding="UTF-8" standalone="no"?>
<svg
   xmlns:osb="http://www.openswatchbook.org/uri/2009/osb"
   xmlns:dc="http://purl.org/dc/elements/1.1/"
   xmlns:cc="http://creativecommons.org/ns#"
   xmlns:rdf="http://www.w3.org/1999/02/22-rdf-syntax-ns#"
   xmlns:svg="http://www.w3.org/2000/svg"
   xmlns="http://www.w3.org/2000/svg"
   xmlns:xlink="http://www.w3.org/1999/xlink"
   xmlns:sodipodi="http://sodipodi.sourceforge.net/DTD/sodipodi-0.dtd"
   xmlns:inkscape="http://www.inkscape.org/namespaces/inkscape"
   width="64px"
   height="64px"
   id="svg2816"
   version="1.1"
   inkscape:version="1.0.2-2 (e86c870879, 2021-01-15)"
   sodipodi:docname="createLens.svg"
   enable-background="new"
   inkscape:export-filename="C:\Users\catte\dev\mayaMatchMoveSolver\icons\createLens_32x32.png"
   inkscape:export-xdpi="48"
   inkscape:export-ydpi="48">
  <defs
     id="defs2818">
    <linearGradient
       id="linearGradient7176"
       osb:paint="solid">
      <stop
         style="stop-color:#000000;stop-opacity:1;"
         offset="0"
         id="stop7174" />
    </linearGradient>
    <linearGradient
       id="linearGradient7158"
       osb:paint="solid">
      <stop
         style="stop-color:#000000;stop-opacity:1;"
         offset="0"
         id="stop7156" />
    </linearGradient>
    <marker
       inkscape:stockid="Arrow1Lstart"
       orient="auto"
       refY="0.0"
       refX="0.0"
       id="Arrow1Lstart"
       style="overflow:visible">
      <path
         id="path5670"
         d="M 0.0,0.0 L 5.0,-5.0 L -12.5,0.0 L 5.0,5.0 L 0.0,0.0 z "
         style="fill-rule:evenodd;stroke:#000000;stroke-width:1.0pt;marker-start:none"
         transform="scale(0.8) translate(12.5,0)" />
    </marker>
    <inkscape:perspective
       sodipodi:type="inkscape:persp3d"
       inkscape:vp_x="-58.990193 : 36.291009 : 0"
       inkscape:vp_y="0 : 999.99997 : 0"
       inkscape:vp_z="164.16468 : 72.24924 : 0"
       inkscape:persp3d-origin="32 : 21.333333 : 1"
       id="perspective2824" />
    <inkscape:perspective
       id="perspective4786"
       inkscape:persp3d-origin="0.5 : 0.33333333 : 1"
       inkscape:vp_z="1 : 0.5 : 1"
       inkscape:vp_y="0 : 1000 : 0"
       inkscape:vp_x="0 : 0.5 : 1"
       sodipodi:type="inkscape:persp3d" />
    <inkscape:perspective
       id="perspective4808"
       inkscape:persp3d-origin="0.5 : 0.33333333 : 1"
       inkscape:vp_z="1 : 0.5 : 1"
       inkscape:vp_y="0 : 1000 : 0"
       inkscape:vp_x="0 : 0.5 : 1"
       sodipodi:type="inkscape:persp3d" />
    <inkscape:perspective
       id="perspective5608"
       inkscape:persp3d-origin="0.5 : 0.33333333 : 1"
       inkscape:vp_z="1 : 0.5 : 1"
       inkscape:vp_y="0 : 1000 : 0"
       inkscape:vp_x="0 : 0.5 : 1"
       sodipodi:type="inkscape:persp3d" />
    <inkscape:perspective
       id="perspective4434"
       inkscape:persp3d-origin="0.5 : 0.33333333 : 1"
       inkscape:vp_z="1 : 0.5 : 1"
       inkscape:vp_y="0 : 1000 : 0"
       inkscape:vp_x="0 : 0.5 : 1"
       sodipodi:type="inkscape:persp3d" />
    <inkscape:perspective
       id="perspective3043"
       inkscape:persp3d-origin="0.5 : 0.33333333 : 1"
       inkscape:vp_z="1 : 0.5 : 1"
       inkscape:vp_y="0 : 1000 : 0"
       inkscape:vp_x="0 : 0.5 : 1"
       sodipodi:type="inkscape:persp3d" />
  </defs>
  <sodipodi:namedview
     id="base"
     pagecolor="#ffffff"
     bordercolor="#666666"
     borderopacity="1.0"
     inkscape:pageopacity="0"
     inkscape:pageshadow="2"
     inkscape:zoom="5.5"
     inkscape:cx="38.531565"
     inkscape:cy="22.647458"
     inkscape:current-layer="g8738"
     showgrid="false"
     inkscape:document-units="px"
     inkscape:grid-bbox="true"
     inkscape:window-width="1920"
     inkscape:window-height="1137"
     inkscape:window-x="-8"
     inkscape:window-y="-8"
     inkscape:window-maximized="1"
     showguides="true"
     inkscape:guide-bbox="true"
     inkscape:snap-grids="false"
     inkscape:snap-to-guides="false"
     inkscape:document-rotation="0"
     inkscape:pagecheckerboard="true">
    <inkscape:grid
       type="xygrid"
       id="grid4770"
       empspacing="5"
       visible="true"
       enabled="true"
       snapvisiblegridlinesonly="true" />
    <sodipodi:guide
       orientation="0,1"
       position="32,32"
       id="guide5594"
       inkscape:locked="false" />
    <sodipodi:guide
       orientation="1,0"
       position="32,40"
       id="guide5598"
       inkscape:locked="false" />
    <sodipodi:guide
       position="0,0"
       orientation="0,64"
       id="guide2858"
       inkscape:locked="false" />
    <sodipodi:guide
       position="64,0"
       orientation="-64,0"
       id="guide2860"
       inkscape:locked="false" />
    <sodipodi:guide
       position="76.909091,64.181818"
       orientation="0,-64"
       id="guide2862"
       inkscape:locked="false" />
    <sodipodi:guide
       position="0,64"
       orientation="64,0"
       id="guide2864"
       inkscape:locked="false" />
  </sodipodi:namedview>
  <metadata
     id="metadata2821">
    <rdf:RDF>
      <cc:Work
         rdf:about="">
        <dc:format>image/svg+xml</dc:format>
        <dc:type
           rdf:resource="http://purl.org/dc/dcmitype/StillImage" />
        <dc:title></dc:title>
      </cc:Work>
    </rdf:RDF>
  </metadata>
  <g
     id="layer1"
     inkscape:label="Layer 1"
     inkscape:groupmode="layer"
     style="display:none">
    <g
       id="g3874">
      <g
         id="g4482">
        <g
           id="Shutter"
           transform="matrix(0.03313241,0,0,-0.03313241,31.982441,27.467032)">
          <title
             id="title5672">Basic Shutter Icon</title>
          <path
             d="m -167.9502,-290.8981 h 0.7925 c 17.7064,-11.7336 154.6073,-101.3115 316.7205,-175.4233 101.92472,-46.5958 193.85302,-78.1162 273.23182,-93.6854 51.2694,-10.0563 97.4708,-13.4343 138.3307,-10.1849 C 416.72752,-712.3074 218.60802,-800 0,-800 c -60.0491,0 -118.5476,6.6301 -174.817,19.173 -29.582,34.9311 -54.8083,82.5997 -75.3447,142.5306 -25.5801,74.6484 -43.8427,168.0583 -54.2801,277.6346 -12.699,133.3133 -10.5593,258.618 -8.2264,320.423 l 143.7965,-249.063 -0.2115,-0.3142 c 0.0487,-0.0328 0.2673,-0.1794 0.6399,-0.4278 z"
             id="clona"
             inkscape:connector-curvature="0" />
          <use
             id="use5675"
             xlink:href="#clona"
             transform="rotate(60)"
             x="0"
             y="0"
             width="100%"
             height="100%" />
          <use
             id="use5677"
             xlink:href="#clona"
             transform="rotate(120)"
             x="0"
             y="0"
             width="100%"
             height="100%" />
          <use
             id="use5679"
             xlink:href="#clona"
             transform="scale(-1)"
             x="0"
             y="0"
             width="100%"
             height="100%" />
          <use
             id="use5681"
             xlink:href="#clona"
             transform="rotate(-120)"
             x="0"
             y="0"
             width="100%"
             height="100%" />
          <use
             id="use5683"
             xlink:href="#clona"
             transform="rotate(-60)"
             x="0"
             y="0"
             width="100%"
             height="100%" />
        </g>
      </g>
    </g>
  </g>
  <g
     inkscape:groupmode="layer"
     id="layer3"
     inkscape:label="Layer 2"
     style="display:none">
    <g
       id="g6125"
       transform="matrix(0.00407729,0,0,-0.00407729,5.7199378,52.047542)"
       style="fill:#000000;stroke:none">
      <path
         id="path6111"
         d="M 6075,12794 C 5182,12746 4361,12533 3565,12140 2916,11821 2391,11443 1870,10921 887,9937 261,8684 66,7310 17,6969 6,6802 6,6400 6,5998 17,5832 66,5490 232,4315 718,3221 1481,2304 2519,1056 3997,245 5590,51 5907,13 6032,5 6385,5 c 480,0 835,35 1275,124 1307,265 2524,954 3421,1936 885,970 1439,2138 1623,3425 49,339 60,507 60,910 0,474 -27,777 -109,1208 -229,1218 -821,2354 -1696,3256 -670,691 -1490,1222 -2407,1557 -494,181 -1043,303 -1597,354 -162,15 -724,27 -880,19 z m 861,-479 c 1021,-102 1915,-418 2750,-971 1309,-867 2229,-2236 2538,-3776 84,-417 110,-697 110,-1168 0,-390 -11,-551 -59,-877 C 11899,2992 9912,968 7390,546 5975,309 4553,573 3335,1298 1892,2157 875,3591 546,5232 c -84,417 -110,697 -110,1168 0,471 27,757 110,1170 290,1434 1094,2704 2269,3584 575,431 1225,754 1922,955 434,125 823,190 1353,225 126,8 704,-4 846,-19 z"
         inkscape:connector-curvature="0" />
      <path
         id="path6113"
         d="m 6195,12073 c -806,-26 -1586,-222 -2310,-578 -839,-413 -1541,-1004 -2103,-1771 -29,-39 -52,-77 -52,-83 0,-7 255,-454 567,-994 311,-540 690,-1196 840,-1457 151,-261 278,-478 281,-482 4,-4 704,1199 1555,2674 1165,2016 1545,2683 1535,2689 -12,8 -118,9 -313,2 z"
         inkscape:connector-curvature="0" />
      <path
         id="path6115"
         d="m 6421,11297 c -242,-419 -624,-1081 -850,-1472 l -410,-710 3101,-3 c 1706,-1 3103,0 3105,2 6,6 -132,239 -235,396 -420,642 -979,1204 -1617,1625 -738,487 -1597,803 -2450,899 -77,9 -154,18 -172,20 l -32,5 z"
         inkscape:connector-curvature="0" />
      <path
         id="path6117"
         d="M 1518,9324 C 1453,9222 1312,8956 1243,8809 762,7772 604,6662 776,5530 851,5037 1010,4498 1209,4068 l 40,-88 h 1697 c 1611,0 1696,1 1690,18 -4,9 -42,78 -85,152 -70,120 -769,1331 -2451,4245 -295,512 -541,939 -547,949 -10,18 -13,16 -35,-20 z"
         inkscape:connector-curvature="0" />
      <path
         id="path6119"
         d="m 8130,8811 c 0,-5 692,-1207 1538,-2672 846,-1465 1543,-2673 1549,-2683 9,-17 18,-7 68,78 356,606 601,1295 709,1996 75,488 86,1026 30,1519 -65,571 -234,1185 -463,1684 l -40,87 H 9825 c -961,0 -1695,-4 -1695,-9 z"
         inkscape:connector-curvature="0" />
      <path
         id="path6121"
         d="M 7797,3420 C 6945,1946 6252,735 6256,728 c 8,-13 372,-3 614,17 1519,130 2916,862 3891,2040 107,129 279,360 279,374 0,10 -1673,2916 -1689,2933 -4,5 -703,-1198 -1554,-2672 z"
         inkscape:connector-curvature="0" />
      <path
         id="path6123"
         d="m 1400,3686 c 0,-15 167,-291 260,-431 499,-748 1160,-1360 1950,-1807 549,-311 1214,-545 1844,-648 173,-28 450,-60 457,-51 12,12 1684,2914 1687,2928 3,11 -519,13 -3097,13 -1706,0 -3101,-2 -3101,-4 z"
         inkscape:connector-curvature="0" />
    </g>
  </g>
  <g
     inkscape:groupmode="layer"
     id="g8738"
     inkscape:label="Layer 2 copy copy"
     style="display:inline">
    <path
       style="fill:#ffffff;fill-opacity:1;fill-rule:nonzero;stroke:none;stroke-width:0.25713;stroke-miterlimit:4;stroke-dasharray:none;stroke-opacity:1"
       d=""
       id="path8786"
       inkscape:connector-curvature="0" />
    <path
       style="fill:#000000;fill-opacity:1;fill-rule:nonzero;stroke:none;stroke-width:2.17648;stroke-miterlimit:4;stroke-dasharray:none;stroke-opacity:1"
       d="M 31.618964,0.6054688 C 18.614837,0.6057201 8.0732282,11.148075 8.0738993,24.152202 8.0741504,37.155677 18.615489,47.697015 31.618964,47.697266 44.62244,47.697015 55.163777,37.155678 55.164028,24.152202 55.164699,11.148075 44.623091,0.6057199 31.618964,0.6054688 Z m -5.588387,13.6201492 11.262973,0.08999 5.553493,9.801107 -5.711479,9.709115 -11.262973,-0.08999 -5.553495,-9.801106 z"
       id="path12503"
       inkscape:connector-curvature="0"
       sodipodi:nodetypes="cccccccccccc" />
    <text
       xml:space="preserve"
       style="font-style:normal;font-weight:normal;font-size:41.796px;line-height:1.25;font-family:sans-serif;letter-spacing:0px;word-spacing:0px;display:inline;fill:#000000;fill-opacity:1;stroke:none;stroke-width:1.0449"
       x="0.11188768"
       y="61.789471"
       id="text1137-8"><tspan
         sodipodi:role="line"
         id="tspan1135-3"
         x="0.11188768"
         y="61.789471"
         style="font-style:normal;font-variant:normal;font-weight:bold;font-stretch:normal;font-size:17.415px;font-family:sans-serif;-inkscape-font-specification:'sans-serif Bold';fill:#000000;fill-opacity:1;stroke-width:1.0449">Create</tspan></text>
    <text
       xml:space="preserve"
       style="font-style:normal;font-weight:normal;font-size:41.796px;line-height:1.25;font-family:sans-serif;letter-spacing:0px;word-spacing:0px;display:inline;fill:#dadada;fill-opacity:1;stroke:none;stroke-width:1.0449"
       x="-0.32746196"
       y="60.9156"
       id="text1137"><tspan
         sodipodi:role="line"
         id="tspan1135"
         x="-0.32746196"
         y="60.9156"
         style="font-style:normal;font-variant:normal;font-weight:bold;font-stretch:normal;font-size:17.415px;font-family:sans-serif;-inkscape-font-specification:'sans-serif Bold';fill:#dadada;fill-opacity:1;stroke-width:1.0449">Create</tspan></text>
  </g>
  <g
     style="display:inline"
     inkscape:label="Layer 2 copy"
     id="g7117"
     inkscape:groupmode="layer">
    <path
       style="fill:#adadb6;fill-opacity:1;stroke:none;stroke-width:1.95136344;stroke-miterlimit:4;stroke-dasharray:none;stroke-opacity:1"
       id="path7103"
       d="M 30.823148,1.4136949 C 27.61677,1.5171265 24.513822,2.2968413 21.63365,3.7130583 18.295994,5.3560289 15.503342,7.707107 13.267629,10.758337 c -0.115367,0.155147 -0.206863,0.306317 -0.206863,0.330186 0,0.02785 1.014423,1.806074 2.255603,3.954268 1.237201,2.148194 2.744914,4.757852 3.341635,5.796146 0.600698,1.038294 1.105922,1.901551 1.117857,1.917462 0.01591,0.01591 2.800609,-4.769786 6.186004,-10.637539 4.634529,-8.0199225 6.146221,-10.6733402 6.10644,-10.6972089 -0.04774,-0.031825 -0.46942,-0.035804 -1.245157,-0.00796 z"
       inkscape:connector-curvature="0" />
    <path
       style="fill:#adadb6;fill-opacity:1;stroke:none;stroke-width:1.95136344;stroke-miterlimit:4;stroke-dasharray:none;stroke-opacity:1"
       id="path7105"
       d="M 31.722208,4.5007295 C 30.759498,6.167569 29.239849,8.801093 28.340789,10.356546 l -1.631035,2.824478 12.336203,0.01192 c 6.786704,0.0039 12.344161,0 12.352117,-0.008 0.02386,-0.02387 -0.525113,-0.950775 -0.934862,-1.575343 C 48.792394,9.055695 46.568616,6.819983 44.030564,5.1451877 41.094699,3.2078348 37.677479,1.9507434 34.284128,1.5688422 33.97781,1.533039 33.671494,1.4972357 33.599889,1.4892795 l -0.127302,-0.019891 z"
       inkscape:connector-curvature="0" />
    <path
       style="fill:#adadb6;fill-opacity:1;stroke:none;stroke-width:1.95136344;stroke-miterlimit:4;stroke-dasharray:none;stroke-opacity:1"
       id="path7107"
       d="m 12.2174,12.349592 c -0.258579,0.40577 -0.819496,1.463955 -1.093989,2.048741 -1.9134842,4.125328 -2.5420299,8.54106 -1.8577903,13.044312 0.2983607,1.961221 0.9308853,4.105438 1.7225343,5.816037 l 0.159126,0.350076 h 6.750899 c 6.408779,0 6.746921,-0.0039 6.723052,-0.0716 -0.01591,-0.03581 -0.167082,-0.310295 -0.338141,-0.604677 -0.278471,-0.477378 -3.059188,-5.2949 -9.750415,-16.887194 -1.173551,-2.036806 -2.152172,-3.735471 -2.176041,-3.775252 -0.03978,-0.07161 -0.05171,-0.06366 -0.139235,0.07956 z"
       inkscape:connector-curvature="0" />
    <path
       style="fill:#adadb6;fill-opacity:1;stroke:none;stroke-width:1.95136344;stroke-miterlimit:4;stroke-dasharray:none;stroke-opacity:1"
       id="path7109"
       d="m 38.520844,14.390377 c 0,0.01989 2.752871,4.801612 6.118375,10.629584 3.365504,5.827969 6.138266,10.63356 6.162135,10.673341 0.03579,0.06762 0.07161,0.02785 0.270512,-0.310295 1.416218,-2.410752 2.390862,-5.151687 2.8205,-7.940362 0.29836,-1.941331 0.34212,-4.081569 0.119345,-6.04279 -0.25858,-2.271517 -0.930884,-4.714093 -1.841879,-6.699184 l -0.159125,-0.346098 h -6.746921 c -3.82299,0 -6.742942,0.01591 -6.742942,0.03581 z"
       inkscape:connector-curvature="0" />
    <path
       style="fill:#adadb6;fill-opacity:1;stroke:none;stroke-width:1.95136344;stroke-miterlimit:4;stroke-dasharray:none;stroke-opacity:1"
       id="path7111"
       d="m 37.196125,35.836515 c -3.389374,5.863775 -6.146223,10.681299 -6.130311,10.709146 0.03183,0.05171 1.479867,0.01192 2.442576,-0.06762 6.042791,-0.517159 11.600249,-3.429155 15.478933,-8.115401 0.425661,-0.513179 1.1099,-1.432129 1.1099,-1.487823 0,-0.03977 -6.655424,-11.600248 -6.719074,-11.667877 -0.01591,-0.01989 -2.79663,4.765808 -6.182024,10.629583 z"
       inkscape:connector-curvature="0" />
    <path
       style="fill:#adadb6;fill-opacity:1;stroke:none;stroke-width:1.95136344;stroke-miterlimit:4;stroke-dasharray:none;stroke-opacity:1"
       id="path7113"
       d="m 11.747979,34.77833 c 0,0.05967 0.66435,1.157638 1.034316,1.714577 1.98509,2.975647 4.61464,5.410266 7.757368,7.188495 2.183997,1.2372 4.829458,2.168085 7.335684,2.577832 0.68822,0.111388 1.790163,0.238689 1.81801,0.202886 0.04774,-0.04774 6.699183,-11.592292 6.711117,-11.647986 0.01194,-0.04376 -2.064652,-0.05172 -12.320291,-0.05172 -6.786703,0 -12.336204,0.008 -12.336204,0.01592 z"
       inkscape:connector-curvature="0" />
  </g>
</svg>
