<?xml version="1.0" encoding="UTF-8" standalone="no"?>
<svg
   width="64px"
   height="64px"
   id="svg2816"
   version="1.1"
   inkscape:version="1.1.2 (b8e25be833, 2022-02-05)"
   sodipodi:docname="mmImagePlaneShape.svg"
   enable-background="new"
   inkscape:export-filename="C:\Users\catte\dev\mayaMatchMoveSolver\icons\createImagePlane_32x32.png"
   inkscape:export-xdpi="48"
   inkscape:export-ydpi="48"
   xmlns:inkscape="http://www.inkscape.org/namespaces/inkscape"
   xmlns:sodipodi="http://sodipodi.sourceforge.net/DTD/sodipodi-0.dtd"
   xmlns="http://www.w3.org/2000/svg"
   xmlns:svg="http://www.w3.org/2000/svg"
   xmlns:rdf="http://www.w3.org/1999/02/22-rdf-syntax-ns#"
   xmlns:cc="http://creativecommons.org/ns#"
   xmlns:dc="http://purl.org/dc/elements/1.1/">
  <defs
     id="defs2818">
    <marker
       inkscape:stockid="Arrow1Lstart"
       orient="auto"
       refY="0.0"
       refX="0.0"
       id="Arrow1Lstart"
       style="overflow:visible">
      <path
         id="path5670"
         d="M 0.0,0.0 L 5.0,-5.0 L -12.5,0.0 L 5.0,5.0 L 0.0,0.0 z "
         style="fill-rule:evenodd;stroke:#000000;stroke-width:1.0pt;marker-start:none"
         transform="scale(0.8) translate(12.5,0)" />
    </marker>
    <inkscape:perspective
       sodipodi:type="inkscape:persp3d"
       inkscape:vp_x="-58.990193 : 36.291009 : 0"
       inkscape:vp_y="0 : 999.99997 : 0"
       inkscape:vp_z="164.16468 : 72.24924 : 0"
       inkscape:persp3d-origin="32 : 21.333333 : 1"
       id="perspective2824" />
    <inkscape:perspective
       id="perspective4786"
       inkscape:persp3d-origin="0.5 : 0.33333333 : 1"
       inkscape:vp_z="1 : 0.5 : 1"
       inkscape:vp_y="0 : 1000 : 0"
       inkscape:vp_x="0 : 0.5 : 1"
       sodipodi:type="inkscape:persp3d" />
    <inkscape:perspective
       id="perspective4808"
       inkscape:persp3d-origin="0.5 : 0.33333333 : 1"
       inkscape:vp_z="1 : 0.5 : 1"
       inkscape:vp_y="0 : 1000 : 0"
       inkscape:vp_x="0 : 0.5 : 1"
       sodipodi:type="inkscape:persp3d" />
    <inkscape:perspective
       id="perspective5608"
       inkscape:persp3d-origin="0.5 : 0.33333333 : 1"
       inkscape:vp_z="1 : 0.5 : 1"
       inkscape:vp_y="0 : 1000 : 0"
       inkscape:vp_x="0 : 0.5 : 1"
       sodipodi:type="inkscape:persp3d" />
    <inkscape:perspective
       id="perspective4434"
       inkscape:persp3d-origin="0.5 : 0.33333333 : 1"
       inkscape:vp_z="1 : 0.5 : 1"
       inkscape:vp_y="0 : 1000 : 0"
       inkscape:vp_x="0 : 0.5 : 1"
       sodipodi:type="inkscape:persp3d" />
    <inkscape:perspective
       id="perspective3043"
       inkscape:persp3d-origin="0.5 : 0.33333333 : 1"
       inkscape:vp_z="1 : 0.5 : 1"
       inkscape:vp_y="0 : 1000 : 0"
       inkscape:vp_x="0 : 0.5 : 1"
       sodipodi:type="inkscape:persp3d" />
  </defs>
  <sodipodi:namedview
     id="base"
     pagecolor="#ffffff"
     bordercolor="#666666"
     borderopacity="1.0"
     inkscape:pageopacity="0"
     inkscape:pageshadow="2"
     inkscape:zoom="7.7781746"
     inkscape:cx="22.048875"
     inkscape:cy="28.412836"
     inkscape:current-layer="layer4"
     showgrid="false"
     inkscape:document-units="px"
     inkscape:grid-bbox="true"
     inkscape:window-width="1920"
     inkscape:window-height="1137"
     inkscape:window-x="-8"
     inkscape:window-y="-8"
     inkscape:window-maximized="1"
     showguides="true"
     inkscape:guide-bbox="true"
     inkscape:document-rotation="0"
     inkscape:pagecheckerboard="true">
    <inkscape:grid
       type="xygrid"
       id="grid4770"
       empspacing="5"
       visible="true"
       enabled="true"
       snapvisiblegridlinesonly="true" />
    <sodipodi:guide
       orientation="0,1"
       position="32,32"
       id="guide5594"
       inkscape:locked="false" />
    <sodipodi:guide
       orientation="1,0"
       position="32,40"
       id="guide5598"
       inkscape:locked="false" />
    <sodipodi:guide
       position="0,0"
       orientation="0,64"
       id="guide2858"
       inkscape:locked="false" />
    <sodipodi:guide
       position="64,0"
       orientation="-64,0"
       id="guide2860"
       inkscape:locked="false" />
    <sodipodi:guide
       position="64,64"
       orientation="0,-64"
       id="guide2862"
       inkscape:locked="false" />
    <sodipodi:guide
       position="0,64"
       orientation="64,0"
       id="guide2864"
       inkscape:locked="false" />
  </sodipodi:namedview>
  <metadata
     id="metadata2821">
    <rdf:RDF>
      <cc:Work
         rdf:about="">
        <dc:format>image/svg+xml</dc:format>
        <dc:type
           rdf:resource="http://purl.org/dc/dcmitype/StillImage" />
      </cc:Work>
    </rdf:RDF>
  </metadata>
  <g
     inkscape:groupmode="layer"
     id="layer4"
     inkscape:label="Layer 1"
     style="display:inline">
    <g
       id="g6500"
       transform="matrix(0.64140089,0,0,0.64140089,-5.1598235,-5.0592358)"
       style="fill:#000000;fill-opacity:1;fill-rule:nonzero;stroke:none">
      <g
         transform="translate(10,10)"
         id="g4"
         style="fill:#000000;fill-opacity:1;fill-rule:nonzero;stroke:none">
        <rect
           style="fill:#000000;fill-opacity:1;fill-rule:nonzero;stroke:none"
           id="rect2"
           height="4"
           width="7.7600002"
           transform="matrix(0.7071,0.7071,-0.7071,0.7071,70.8507,-22.0004)"
           y="72.529999"
           x="58.104" />
      </g>
      <g
         transform="translate(10,10)"
         id="g8"
         style="fill:#000000;fill-opacity:1;fill-rule:nonzero;stroke:none">
        <polygon
           style="fill:#000000;fill-opacity:1;fill-rule:nonzero;stroke:none"
           id="polygon6"
           points="54.949,70.323 38.939,54.313 3.414,89.838 0.586,87.01 38.939,48.656 57.777,67.495 " />
      </g>
      <g
         transform="translate(10,10)"
         id="g12"
         style="fill:#000000;fill-opacity:1;fill-rule:nonzero;stroke:none">
        <polygon
           style="fill:#000000;fill-opacity:1;fill-rule:nonzero;stroke:none"
           id="polygon10"
           points="92.586,59.172 72.394,38.98 49.414,61.959 46.586,59.131 72.394,33.323 95.414,56.344 " />
      </g>
      <g
         transform="translate(10,10)"
         id="g16"
         style="fill:#000000;fill-opacity:1;fill-rule:nonzero;stroke:none">
        <path
           style="fill:#000000;fill-opacity:1;fill-rule:nonzero;stroke:none"
           inkscape:connector-curvature="0"
           id="path14"
           d="m 27.091,38.849 c -6.483,0 -11.758,-5.274 -11.758,-11.758 0,-6.483 5.274,-11.757 11.758,-11.757 6.484,0 11.758,5.274 11.758,11.757 0,6.483 -5.275,11.758 -11.758,11.758 z m 0,-19.516 c -4.277,0 -7.758,3.48 -7.758,7.757 0,4.278 3.48,7.758 7.758,7.758 4.278,0 7.758,-3.48 7.758,-7.758 0,-4.277 -3.481,-7.757 -7.758,-7.757 z" />
      </g>
      <g
         transform="translate(10,10)"
         id="g20"
         style="fill:#000000;fill-opacity:1;fill-rule:nonzero;stroke:none">
        <path
           style="fill:#000000;fill-opacity:1;fill-rule:nonzero;stroke:none"
           inkscape:connector-curvature="0"
           id="path18"
           d="M 86,96 H 10 C 4.486,96 0,91.514 0,86 V 10 C 0,4.486 4.486,0 10,0 h 76 c 5.514,0 10,4.486 10,10 v 76 c 0,5.514 -4.486,10 -10,10 z M 10,4 C 6.691,4 4,6.691 4,10 v 76 c 0,3.309 2.691,6 6,6 h 76 c 3.309,0 6,-2.691 6,-6 V 10 C 92,6.691 89.309,4 86,4 Z" />
      </g>
    </g>
    <path
       style="fill:#5fff6c;fill-opacity:1;fill-rule:nonzero;stroke:none;stroke-width:0.552379;stroke-miterlimit:4;stroke-dasharray:none;stroke-opacity:1"
       d="M 6.0625622,59.764931 C 3.7338213,58.57163 3.0665343,59.476591 15.277236,47.268203 l 10.942291,-10.94022 5.161897,5.157507 5.161898,5.157506 0.866767,-0.840104 c 0.47672,-0.462057 0.866767,-0.954594 0.866767,-1.094526 0,-0.139932 -0.967517,-1.226444 -2.150041,-2.41447 l -2.15004,-2.160047 6.824253,-6.824253 6.824253,-6.824253 6.274757,6.271138 6.274755,6.271136 v 9.051838 c 0,10.085258 -0.01353,10.180553 -1.615463,11.402529 L 57.629787,60.19104 32.390715,60.25702 7.15164,60.323 Z M 42.092025,48.25939 c -0.940826,-0.948093 -1.830244,-1.723806 -1.976483,-1.723806 -0.146239,0 -0.643064,0.389145 -1.104055,0.864767 l -0.838165,0.864766 1.830695,1.842994 1.830694,1.842996 0.983957,-0.983956 0.983955,-0.983955 z"
       id="path6507"
       inkscape:connector-curvature="0" />
    <path
       style="fill:#edff04;fill-opacity:1;fill-rule:nonzero;stroke:none;stroke-width:0.552379;stroke-miterlimit:4;stroke-dasharray:none;stroke-opacity:1"
       d="m 16.99403,23.286748 c -1.302517,-0.456757 -2.695259,-2.03861 -3.055899,-3.47084 -0.596421,-2.368605 0.987173,-5.085396 3.346039,-5.740416 1.16925,-0.324682 1.447923,-0.324998 2.607604,-0.003 1.892635,0.525589 3.611621,2.743583 3.611621,4.660046 0,1.916463 -1.718986,4.134457 -3.611621,4.660046 -1.200097,0.33327 -1.697226,0.315104 -2.897744,-0.105878 z"
       id="path6509"
       inkscape:connector-curvature="0" />
    <path
       style="fill:#b9d1ff;fill-opacity:1;fill-rule:nonzero;stroke:none;stroke-width:0.552379;stroke-miterlimit:4;stroke-dasharray:none;stroke-opacity:1"
       d="M 3.8886513,30.788754 C 3.9525513,7.2177422 3.9623623,6.7844262 4.4514016,5.9382882 4.7475805,5.4258372 5.3950492,4.8511562 6.0503803,4.5190652 l 1.1012597,-0.558068 25.239075,0.06598 25.239072,0.06598 0.929543,0.709055 c 1.658788,1.265324 1.615463,0.82764 1.615463,16.3197938 V 35.090908 L 53.90048,28.820215 47.62617,22.549523 39.813085,30.359746 32,38.169969 29.110197,35.280166 26.220394,32.390363 15.022006,43.584215 3.8236171,54.778067 Z M 21.936803,25.611229 c 5.704549,-2.761526 5.689198,-10.967375 -0.02578,-13.77955 -1.734693,-0.853592 -4.898126,-0.863691 -6.51628,-0.0208 -1.514924,0.789115 -2.870145,2.130564 -3.637077,3.600113 -0.886246,1.69817 -0.93176,4.583832 -0.100898,6.39715 0.919434,2.006628 2.753774,3.607683 4.968197,4.336357 1.150426,0.378556 4.024241,0.09004 5.31184,-0.533267 z"
       id="path6511"
       inkscape:connector-curvature="0" />
  </g>
</svg>
